<svg width="150" height="150" viewBox="0 0 150 150" fill="none" xmlns="http://www.w3.org/2000/svg">
<g clip-path="url(#clip0_305_573)">
<path d="M127.5 0H22.5C10.0736 0 0 10.0736 0 22.5V127.5C0 139.926 10.0736 150 22.5 150H127.5C139.926 150 150 139.926 150 127.5V22.5C150 10.0736 139.926 0 127.5 0Z" fill="#777BB3"/>
<path d="M45.4102 59.1797H28.418C28.2278 59.1689 28.0392 59.2202 27.8807 59.3259C27.7222 59.4316 27.6023 59.5859 27.5391 59.7656L19.6289 101.074C19.6289 101.953 20.5078 101.953 20.5078 101.953H29.2969C30.1758 101.953 30.1758 101.367 30.1758 101.367L32.2266 91.1133H40.1367C52.4414 91.1133 58.5938 82.9102 60.0586 75.5859C61.5234 68.2617 60.3516 59.1797 45.4102 59.1797ZM49.2188 75C48.0469 80.5664 44.2383 82.9102 38.9648 82.9102H33.6914L36.9141 67.3828H42.1875C50.0977 67.3828 49.8047 70.3125 49.2188 75Z" fill="black" stroke="white" stroke-width="2"/>
<path d="M80.5664 91.1133C79.3945 91.1133 79.6875 89.9414 79.6875 89.9414L83.2031 72.0703C83.2031 69.7266 84.9609 67.3828 77.9297 67.6758H72.6562L68.2617 90.5273C68.2617 90.5273 68.2617 91.4062 67.0898 91.4062H58.5937C57.7148 91.4062 57.7148 90.5273 57.7148 90.5273L65.918 49.2188C65.918 49.2188 65.918 48.6328 67.0898 48.6328H75.8789C76.7578 48.6328 76.4648 49.5117 76.4648 49.5117L74.4141 59.4727H82.0312C92.5781 59.4727 95.2148 64.4531 94.3359 70.3125L90.5273 90.5273C90.5273 90.5273 90.5273 91.4062 89.0625 91.4062L80.5664 91.1133Z" fill="black" stroke="white" stroke-width="2"/>
<path d="M115.43 59.1797H98.4375C98.2473 59.1689 98.0587 59.2202 97.9002 59.3259C97.7417 59.4316 97.6218 59.5859 97.5586 59.7656L89.6484 101.074C89.6484 101.953 90.5273 101.953 90.5273 101.953H99.3164C100.195 101.953 100.195 101.367 100.195 101.367L102.246 91.1133H110.156C122.461 91.1133 128.613 82.9102 130.078 75.5859C131.543 68.2617 130.371 59.1797 115.43 59.1797ZM119.238 75C118.066 80.5664 114.258 82.9102 108.984 82.9102H103.711L106.934 67.3828H112.207C120.117 67.3828 119.824 70.3125 119.238 75Z" fill="black" stroke="white" stroke-width="2"/>
</g>
<defs>
<clipPath id="clip0_305_573">
<rect width="150" height="150" fill="white"/>
</clipPath>
</defs>
</svg>
