<svg width="150" height="150" viewBox="0 0 150 150" fill="none" xmlns="http://www.w3.org/2000/svg">
<g clip-path="url(#clip0_305_548)">
<path d="M127.5 0H22.5C10.0736 0 0 10.0736 0 22.5V127.5C0 139.926 10.0736 150 22.5 150H127.5C139.926 150 150 139.926 150 127.5V22.5C150 10.0736 139.926 0 127.5 0Z" fill="#F7DF1E"/>
<path d="M94.9219 108.398C97.8516 113.379 101.953 116.895 108.691 116.895C114.551 116.895 118.359 113.965 118.359 109.863C118.359 105.176 114.551 103.418 108.105 100.488L104.59 99.0234C94.3359 94.6289 87.5977 89.3555 87.5977 77.9297C87.5977 67.3828 95.5078 59.1797 108.105 59.1797C117.188 59.1797 123.633 62.4023 128.027 70.6055L117.188 77.6367C114.844 73.2422 112.207 71.4844 108.105 71.4844C104.004 71.4844 101.367 74.1211 101.367 77.6367C101.367 81.7383 104.004 83.4961 110.156 86.1328L113.672 87.5977C125.684 92.8711 132.422 97.8516 132.422 109.863C132.422 122.461 122.461 129.492 108.984 129.492C95.8008 129.492 87.3047 123.34 83.2031 115.137L94.9219 108.398ZM45.1172 109.57C47.4609 113.379 49.2188 116.895 54.1992 116.895C58.8867 116.895 61.8164 115.137 61.8164 108.105V59.4727H75.8789V107.52C75.8789 122.168 67.3828 128.613 54.7852 128.613C43.3594 128.613 36.9141 122.754 33.6914 115.723L45.1172 109.57Z" fill="black"/>
</g>
<defs>
<clipPath id="clip0_305_548">
<rect width="150" height="150" fill="white"/>
</clipPath>
</defs>
</svg>
