<svg width="150" height="150" viewBox="0 0 150 150" fill="none" xmlns="http://www.w3.org/2000/svg">
<path d="M123.33 51.4592C121.774 50.9236 120.162 50.4168 118.501 49.9375C118.774 48.8239 119.025 47.7247 119.247 46.6441C122.903 28.9013 120.513 14.6076 112.352 9.90146C104.527 5.38893 91.7293 10.094 78.8045 21.3421C77.5616 22.4237 76.3152 23.5688 75.0694 24.769C74.2393 23.9749 73.4106 23.2076 72.5839 22.4736C59.0383 10.4464 45.4609 5.37798 37.3082 10.0977C29.4905 14.6233 27.1753 28.0608 30.4655 44.8758C30.7833 46.4999 31.1547 48.1585 31.5746 49.8449C29.6531 50.3904 27.798 50.9719 26.023 51.5905C10.1422 57.1273 0 65.8047 0 74.8055C0 84.1015 10.8876 93.4256 27.4287 99.0793C28.7341 99.5255 30.0885 99.9473 31.4844 100.348C31.0313 102.172 30.6372 103.959 30.3064 105.702C27.1692 122.225 29.6192 135.345 37.416 139.842C45.4695 144.487 58.9855 139.713 72.1466 128.209C73.1868 127.299 74.2308 126.335 75.2766 125.324C76.6322 126.629 77.9856 127.865 79.3318 129.023C92.0799 139.994 104.671 144.423 112.46 139.914C120.506 135.256 123.121 121.162 119.726 104.015C119.467 102.705 119.165 101.367 118.826 100.005C119.775 99.7247 120.707 99.435 121.616 99.1338C138.812 93.4363 150 84.2257 150 74.8055C150 65.7721 139.531 57.0362 123.33 51.4592ZM119.6 93.0513C118.78 93.3228 117.939 93.5853 117.081 93.8398C115.183 87.8299 112.621 81.4393 109.485 74.8367C112.477 68.3914 114.94 62.0825 116.785 56.1116C118.32 56.5556 119.809 57.0239 121.244 57.5182C135.125 62.2966 143.592 69.3616 143.592 74.8055C143.592 80.6041 134.448 88.1316 119.6 93.0513ZM113.44 105.259C114.941 112.841 115.155 119.697 114.161 125.056C113.267 129.872 111.471 133.082 109.249 134.368C104.522 137.104 94.4132 133.548 83.5108 124.166C82.261 123.09 81.0021 121.942 79.7392 120.727C83.9658 116.104 88.19 110.73 92.3127 104.762C99.5641 104.119 106.415 103.067 112.628 101.63C112.934 102.865 113.206 104.075 113.44 105.259ZM51.1384 133.895C46.5199 135.526 42.8414 135.573 40.6179 134.291C35.8864 131.562 33.9194 121.028 36.6025 106.897C36.9098 105.279 37.2756 103.617 37.6972 101.918C43.8419 103.276 50.6426 104.254 57.9113 104.843C62.0618 110.683 66.408 116.051 70.7878 120.752C69.8309 121.675 68.8777 122.555 67.9299 123.384C62.1101 128.471 56.2781 132.08 51.1384 133.895ZM29.5011 93.0158C22.187 90.5159 16.1467 87.2668 12.0064 83.7213C8.28602 80.5352 6.40768 77.3721 6.40768 74.8055C6.40768 69.3435 14.5509 62.3767 28.1322 57.6415C29.7802 57.0669 31.5052 56.5254 33.2954 56.0168C35.1724 62.1225 37.6347 68.5062 40.6061 74.9614C37.5963 81.5125 35.099 87.9978 33.2036 94.1751C31.9274 93.8083 30.6909 93.4222 29.5011 93.0158ZM36.7541 43.6452C33.9352 29.2385 35.8074 18.3706 40.5185 15.6435C45.5368 12.7383 56.6335 16.8805 68.3291 27.2654C69.0767 27.9292 69.8272 28.6239 70.5798 29.3427C66.2216 34.0223 61.9152 39.35 57.8016 45.1556C50.747 45.8095 43.9941 46.8599 37.7853 48.2664C37.3949 46.6962 37.0492 45.1535 36.7541 43.6452ZM101.457 59.6221C99.9731 57.0584 98.4494 54.5553 96.896 52.1205C101.682 52.7255 106.267 53.5287 110.573 54.5115C109.281 58.6548 107.669 62.9868 105.773 67.4278C104.412 64.8446 102.973 62.24 101.457 59.6221ZM75.0716 33.9222C78.0272 37.1243 80.9872 40.6994 83.8985 44.5784C80.9647 44.4398 77.9947 44.3677 75 44.3677C72.0337 44.3677 69.0855 44.4382 66.1698 44.5744C69.0841 40.7315 72.0697 37.1612 75.0716 33.9222ZM48.5167 59.6664C47.0341 62.2373 45.6217 64.8278 44.2824 67.423C42.4164 62.9975 40.82 58.6457 39.516 54.4437C43.7957 53.4859 48.3595 52.7028 53.115 52.1093C51.5397 54.5665 50.0034 57.0886 48.5167 59.6664ZM53.2519 97.9587C48.3386 97.4106 43.7062 96.6678 39.4276 95.7365C40.7524 91.4595 42.3841 87.0147 44.2896 82.4939C45.6324 85.0873 47.0504 87.6788 48.5421 90.2553C50.0616 92.8802 51.6361 95.4513 53.2519 97.9587ZM75.2488 116.14C72.2117 112.864 69.1824 109.239 66.2238 105.34C69.0959 105.453 72.024 105.51 75 105.51C78.0574 105.51 81.0798 105.441 84.0547 105.309C81.1337 109.278 78.1845 112.908 75.2488 116.14ZM105.834 82.2635C107.839 86.8332 109.529 91.2547 110.871 95.4588C106.522 96.451 101.826 97.2501 96.8783 97.8439C98.4355 95.3763 99.9726 92.8302 101.483 90.2112C103.011 87.5616 104.462 84.9079 105.834 82.2635ZM95.9324 87.0099C93.5876 91.0755 91.1803 94.9566 88.7365 98.6201C84.2854 98.9383 79.6869 99.1023 75 99.1023C70.3321 99.1023 65.7915 98.9573 61.4191 98.6735C58.8768 94.9619 56.4172 91.0694 54.0874 87.0449C51.7637 83.0314 49.6256 78.984 47.6877 74.9593C49.625 70.9252 51.7581 66.8732 54.0684 62.8669L54.0679 62.8677C56.3844 58.8507 58.8223 54.9771 61.3412 51.2888C65.8022 50.9516 70.3767 50.7756 74.9997 50.7756C79.6436 50.7756 84.2243 50.9529 88.6839 51.2931C91.1643 54.9544 93.5857 58.8155 95.9113 62.833C98.2633 66.8956 100.424 70.9206 102.378 74.8682C100.43 78.8836 98.2739 82.9492 95.9324 87.0099ZM109.151 15.4529C114.174 18.3495 116.128 30.0318 112.972 45.3508C112.77 46.3283 112.544 47.3239 112.297 48.3329C106.074 46.897 99.3166 45.8284 92.2414 45.1647C88.1197 39.2953 83.8486 33.9593 79.5614 29.3397C80.714 28.2309 81.8651 27.1736 83.0113 26.1758C94.0853 16.5385 104.435 12.7335 109.151 15.4529ZM75 61.411C82.3974 61.411 88.3945 67.4077 88.3945 74.8055C88.3945 82.2029 82.3974 88.2 75 88.2C67.6026 88.2 61.6055 82.2029 61.6055 74.8055C61.6055 67.4077 67.6026 61.411 75 61.411Z" fill="#00D8FF"/>
</svg>
