<svg width="150" height="150" viewBox="0 0 150 150" fill="none" xmlns="http://www.w3.org/2000/svg">
<path d="M80.4961 10.7753C77.1689 8.90405 72.8311 8.91245 69.5011 10.7753C52.823 19.9794 36.1445 29.1863 19.4632 38.3862C16.2173 40.0938 14.028 43.5796 14.0629 47.1975V102.81C14.0395 106.499 16.3416 110.018 19.6713 111.702C24.4627 114.251 29.1178 117.059 33.9958 119.438C39.6305 122.207 46.6801 122.82 52.3837 119.932C57.0136 117.539 59.07 112.216 59.0639 107.325C59.1014 88.9716 59.07 70.6177 59.0784 52.2638C59.1886 51.4481 58.5759 50.5763 57.6862 50.5959C55.5548 50.5622 53.4206 50.5763 51.2892 50.5903C50.4839 50.5144 49.6978 51.1833 49.7587 51.9928C49.7301 70.2281 49.7644 88.4691 49.7414 106.707C49.7878 109.23 48.0834 111.654 45.6522 112.507C40.0369 114.475 24.0093 104.068 24.0093 104.068C23.4211 103.796 23.0476 103.158 23.1052 102.524C23.1052 84.1762 23.1081 65.828 23.1052 47.483C23.0244 46.7433 23.4802 46.0772 24.1595 45.7752C40.7828 36.6253 57.3975 27.4525 74.0208 18.297C74.5983 17.9116 75.4031 17.9128 75.9792 18.2998C92.6025 27.4525 109.22 36.6169 125.846 45.7673C126.528 46.0688 126.964 46.7461 126.895 47.483C126.892 65.828 126.9 84.1762 126.889 102.522C126.938 103.171 126.603 103.8 125.997 104.085C109.529 113.185 92.8729 121.992 76.5539 131.357C75.8419 131.765 75.0351 132.228 74.2373 131.778C69.9459 129.404 65.7066 126.938 61.4292 124.541C60.9642 124.251 60.3722 124.126 59.887 124.451C57.9694 125.462 56.1656 126.28 53.9634 127.152C50.8706 128.377 51.3647 128.877 54.1542 130.502C59.1562 133.333 64.1667 136.153 69.1687 138.986C72.4617 141.041 76.8862 141.187 80.2851 139.289C96.9661 130.096 113.642 120.892 130.326 111.7C133.647 110.006 135.96 106.501 135.937 102.81V47.1975C135.969 43.653 133.864 40.2294 130.716 38.4965C113.979 29.2475 97.2351 20.0186 80.4961 10.7753Z" fill="#8CC84B"/>
<path d="M105.665 52.5291C99.1181 49.0266 91.3294 48.84 84.0539 49.298C78.7978 49.8173 73.2699 51.2677 69.4406 55.0355C65.513 58.823 64.658 64.9392 66.5236 69.8836C67.8605 73.3777 71.2256 75.6497 74.7056 76.8516C79.1883 78.4341 83.8964 78.9234 88.6059 79.4128C92.9016 79.8591 97.1986 80.3058 101.327 81.5822C103.014 82.1409 104.978 82.9959 105.495 84.8311C105.972 87.0042 105.449 89.5303 103.684 91.0402C98.0798 95.4759 82.4902 94.7962 76.9528 91.305C74.7141 89.8176 73.7494 87.1847 73.357 84.6755C73.3134 83.8936 72.6839 83.1764 71.835 83.2359C69.7092 83.2106 67.5834 83.2162 65.4577 83.2331C64.7161 83.1708 63.945 83.6986 63.9042 84.4556C63.4674 95.948 74.0222 100.958 83.9245 102.061C89.5819 102.6 95.3634 102.569 100.935 101.355C105.122 100.402 109.321 98.6456 112.204 95.4202C115.759 91.5 116.458 85.6636 114.864 80.7806C113.645 77.137 110.162 74.7998 106.601 73.5975C101.759 71.9372 96.0206 71.0447 91.635 70.627C85.2605 70.02 77.6855 70.268 75.8813 66.0792C75.1617 63.8859 75.7739 61.1625 77.7895 59.8134C83.1225 56.1961 93.9764 56.6766 99.4992 59.3789C102.035 60.6487 103.505 63.2569 104.111 65.8898C104.224 66.6633 104.744 67.4705 105.639 67.4367C107.751 67.4789 109.862 67.448 111.973 67.4508C112.698 67.5014 113.492 67.0922 113.633 66.3497C113.544 60.8466 110.734 55.2131 105.665 52.5291Z" fill="#8CC84B"/>
</svg>
