<svg width="150" height="150" viewBox="0 0 150 150" fill="none" xmlns="http://www.w3.org/2000/svg">
<path fill-rule="evenodd" clip-rule="evenodd" d="M0 74.9977C0 104.685 17.2505 130.34 42.2685 142.495L6.49242 44.4763C2.33448 53.8 0 64.1224 0 74.9977ZM125.63 71.2147C125.63 61.9425 122.297 55.5253 119.447 50.5329C115.645 44.3499 112.078 39.1184 112.078 32.9401C112.078 26.0446 117.305 19.6272 124.674 19.6272C125.006 19.6272 125.32 19.6693 125.644 19.688C112.303 7.46265 94.5226 0 74.9986 0C48.7946 0 25.7455 13.4442 12.3342 33.8026C14.0967 33.8589 15.7561 33.8917 17.1624 33.8917C25.0048 33.8917 37.1506 32.9401 37.1506 32.9401C41.1913 32.701 41.6694 38.6449 37.6287 39.1184C37.6287 39.1184 33.5645 39.5965 29.0456 39.8355L56.3559 121.073L72.7719 71.8475L61.0904 39.8355C57.0496 39.5965 53.2198 39.1184 53.2198 39.1184C49.179 38.8793 49.6525 32.701 53.698 32.9401C53.698 32.9401 66.0827 33.8917 73.4517 33.8917C81.2941 33.8917 93.4398 32.9401 93.4398 32.9401C97.4852 32.701 97.9587 38.6449 93.9179 39.1184C93.9179 39.1184 89.8491 39.5965 85.3349 39.8355L112.439 120.454L119.925 95.4592C123.16 85.0807 125.63 77.6321 125.63 71.2147ZM140.812 39.0167C141.136 41.4074 141.319 43.9669 141.319 46.7279C141.319 54.336 139.893 62.8909 135.614 73.5928L112.705 139.824C135.004 126.826 150 102.666 150 74.999C150 61.958 146.667 49.6999 140.812 39.0167ZM76.3158 81.5584L53.8104 146.947C60.5325 148.925 67.639 150.003 74.9986 150.003C83.7317 150.003 92.1085 148.493 99.9041 145.751C99.7072 145.428 99.5196 145.09 99.3696 144.72L76.3158 81.5584Z" fill="#00759D"/>
</svg>
