<svg width="150" height="150" viewBox="0 0 150 150" fill="none" xmlns="http://www.w3.org/2000/svg">
<g clip-path="url(#clip0_388_53)">
<path fill-rule="evenodd" clip-rule="evenodd" d="M71.7965 0.394837C69.5844 1.03204 67.5953 2.69105 60.6398 9.7003L54.0031 16.3888L62.5766 24.9913C70.3547 32.796 71.2422 33.568 72.143 33.3134C74.0961 32.7612 77.7621 33.0956 79.6734 34.0003C84.5184 36.2938 87.5391 42.1402 86.266 46.7597L85.8395 48.3067L93.9387 56.4345L102.038 64.5623L104.97 64.3249C107.407 64.1279 108.276 64.2298 110.118 64.9285C116.171 67.2235 119.211 74.2641 116.689 80.1427C114.969 84.1508 110.35 87.2753 106.144 87.2753C101.939 87.2753 97.3184 84.1508 95.5996 80.145C94.6449 77.9205 94.4219 74.1815 95.1344 72.356C95.5109 71.3922 95.1437 70.9524 87.9469 63.7437L80.3625 56.147V76.3132L80.3629 96.479L82.368 98.2101C85.1621 100.623 86.4246 103.412 86.3707 107.053C86.3215 110.398 85.593 112.184 83.2559 114.689C76.4086 122.028 64.4621 117.823 63.6586 107.79C63.3207 103.567 65.2227 99.6427 68.7051 97.3802L70.5969 96.1512V75.6658V55.1804L69.5105 54.6172C67.5824 53.6178 64.8988 50.3667 64.1598 48.1355C63.4918 46.1197 63.4691 42.2573 64.1156 40.6696C64.2805 40.2646 61.7125 37.4355 55.8492 31.5616L47.3437 23.0413L24.4617 46.0524C9.95 60.6462 1.3418 69.5894 0.928906 70.5004C-0.121875 72.8197 -0.271484 75.143 0.463672 77.7184L1.12344 80.0299L34.7547 113.783C59.3422 138.46 68.9199 147.828 70.3703 148.621C72.8078 149.953 76.5895 150.12 78.8 148.994C80.6246 148.064 147.386 81.2295 148.357 79.3602C148.773 78.5608 149.112 77.5578 149.112 77.1313C149.112 76.7044 149.288 76.2466 149.503 76.1135C149.718 75.9803 149.881 75.1328 149.866 74.23C149.845 72.954 149.764 72.7629 149.503 73.3719C149.195 74.0906 149.165 74.0745 149.136 73.1761C149.057 70.6884 146.572 68.0221 113.304 34.7292C80.709 2.11102 79.7176 1.1605 77.6547 0.558152C75.2859 -0.133493 73.7777 -0.17579 71.7965 0.394837ZM0 74.7427C0 75.712 0.0761719 76.1088 0.169531 75.6239C0.2625 75.139 0.2625 74.3463 0.169531 73.8615C0.0761719 73.3766 0 73.7734 0 74.7427Z" fill="#F05033"/>
</g>
<defs>
<clipPath id="clip0_388_53">
<rect width="150" height="150" fill="white"/>
</clipPath>
</defs>
</svg>
