<svg width="92" height="100" viewBox="0 0 92 100" fill="none" xmlns="http://www.w3.org/2000/svg">
<g clip-path="url(#clip0_390_53)">
<mask id="mask0_390_53" style="mask-type:luminance" maskUnits="userSpaceOnUse" x="0" y="0" width="92" height="100">
<path d="M92 0H0V100H92V0Z" fill="white"/>
</mask>
<g mask="url(#mask0_390_53)">
<path fill-rule="evenodd" clip-rule="evenodd" d="M45.8138 0.703127C36.4581 3.01725 29.2925 9.59013 26.2766 18.6232C25.7503 20.1994 25.2139 22.4998 25.0843 23.7347L24.8493 25.9805H22.4692C18.5598 25.9805 15.6102 27.647 14.0987 30.7102C13.2685 32.3935 13.213 32.9711 13.0365 41.7795L12.8502 51.0732L11.7734 51.1959C11.1614 51.2658 10.5606 51.1052 10.3822 50.8241C10.2094 50.5524 10.0656 48.8075 10.0623 46.9465C10.0526 41.2257 9.16647 40.1067 4.64581 40.1067C2.41435 40.1067 2.07317 40.2108 1.08873 41.1933L0 42.2799L0.00223501 47.9777C0.00335242 51.1115 0.167239 54.2609 0.366883 54.9766C0.904727 56.9052 2.86467 59.0461 5.00189 60.0394C6.65156 60.8059 7.45127 60.9179 11.3171 60.9208C16.4699 60.9253 18.0741 60.5357 20.126 58.7829C22.8335 56.4699 22.8845 56.2505 23.0931 46.0591C23.2626 37.7706 23.3378 36.9451 23.9312 36.8314C24.5473 36.7135 24.583 38.2082 24.583 64.0387C24.583 82.0813 24.7186 92.0027 24.9823 93.2293C25.5347 95.8 27.0935 97.7993 29.4642 98.9787C31.2361 99.8593 31.8473 99.9573 35.5507 99.956C40.3992 99.9533 41.787 99.6313 43.6829 98.0713C46.2045 95.9953 46.6861 94.5567 46.9151 88.4153C47.142 82.3473 47.4951 81.3467 49.7419 80.41C51.4682 79.69 52.8557 79.752 54.2673 80.6107C56.485 81.96 56.7673 82.8067 56.9935 88.7793C57.2139 94.598 57.4676 95.4927 59.4674 97.5093C61.4251 99.4833 63.0271 99.9413 67.976 99.9413C71.506 99.9413 72.7587 99.7993 73.9353 99.264C75.8513 98.394 78.0593 95.944 78.564 94.1293C78.8173 93.2187 78.96 86.27 78.9613 74.772C78.9627 64.9067 79.054 56.8353 79.1647 56.8353C79.67 56.8353 82.1947 58.3149 82.7673 58.9469C83.8427 60.1338 84.5507 62.2899 84.5507 64.3773C84.5507 66.0361 84.3953 66.5011 83.6193 67.1747C82.4727 68.17 82.4573 69.28 83.5487 72.2627C84.1687 73.9567 84.56 74.5213 85.1773 74.6087C86.122 74.7433 86.3833 74.3133 87.342 71.044C88.0187 68.74 88.0173 68.6973 87.2747 67.6947C86.7347 66.9653 86.4713 65.8937 86.34 63.8944C86.0487 59.4357 84.3407 56.9249 80.638 55.5137C79.4673 55.0677 78.9667 54.6766 79.044 54.2691C79.132 53.8059 79.8113 53.6297 82.1333 53.468C86.6507 53.1535 89.5353 51.2733 91.2253 47.5417C91.9493 45.9446 91.9833 45.1613 91.9833 30.2555C91.9833 15.3496 91.9493 14.5663 91.2253 12.9693C90.298 10.9213 88.5793 9.07933 86.5993 8.01133C85.25 7.2834 84.4427 7.19567 78.0553 7.08453L71.0013 6.96147L69.3227 5.48639C67.0867 3.52209 62.2572 1.18825 59.0365 0.515394C55.4157 -0.24074 49.2766 -0.153751 45.8138 0.703127ZM48.0486 2.4206C45.7709 2.85405 42.0801 4.21093 39.8543 5.43286C36.115 7.4864 31.7191 12.1221 29.849 15.9838C28.1088 19.5779 27.2037 23.0195 27.1959 26.0734L27.1903 28.2109L23.7449 28.2169C19.9499 28.2239 18.1128 28.9105 16.6606 30.8659C15.5335 32.3827 15.3051 34.4369 15.2877 43.2022L15.2713 51.3163L14.1825 52.403C12.6495 53.9331 10.4437 53.9331 8.9106 52.403C7.85053 51.3446 7.82187 51.2175 7.82187 47.5457C7.82187 42.7755 7.604 42.3372 5.23208 42.3372C2.11563 42.3372 2.23482 42.1059 2.23482 48.1509C2.23482 54.2238 2.51268 55.2792 4.59255 57.1015C6.27053 58.5721 7.42853 58.7948 12.5601 58.6349C16.1555 58.5231 16.7887 58.4015 17.9653 57.5959C20.573 55.8101 20.6509 55.4773 20.8583 45.1847C21.0431 36.0325 21.0523 35.9444 21.9239 35.2407C22.5449 34.7392 23.39 34.5306 24.8017 34.5306H26.8003L26.9023 63.8056C27.016 96.5173 26.8309 94.334 29.6739 96.5C30.9213 97.4507 31.3642 97.5527 34.7324 97.67C39.4576 97.8347 40.6804 97.588 42.3386 96.1347C44.3667 94.358 44.6963 93.2027 44.6963 87.876C44.6963 82.6247 45.0185 81.4653 46.98 79.6547C50.7575 76.168 56.7443 77.5233 58.6669 82.3C58.8312 82.7087 59.0655 85.4693 59.1873 88.434C59.3869 93.2887 59.4953 93.9447 60.2783 95.0407C61.7793 97.1413 63.4692 97.7273 68.0213 97.7273C71.5947 97.7273 72.1707 97.632 73.5873 96.8033C74.6407 96.1873 75.4273 95.3427 75.948 94.2693C76.7107 92.698 76.7287 92.1993 76.7287 73.0747V53.4896H73.602C71.522 53.4896 69.6633 53.2394 68.0507 52.742C65.3792 51.9186 61.8303 49.5257 60.2999 47.516C58.1653 44.713 56.6154 40.4944 56.6154 37.4863C56.6154 36.5154 56.7435 36.3894 57.7328 36.3894C58.75 36.3894 58.8502 36.5001 58.8502 37.6227C58.8502 42.4175 62.5551 47.8394 67.372 50.0937C69.422 51.0528 69.6253 51.0732 77.1613 51.0732H84.858L86.4447 49.958C87.318 49.3446 88.422 48.1056 88.8987 47.2045C89.7647 45.5665 89.7653 45.5599 89.7653 30.3711C89.7653 13.7359 89.7693 13.7745 87.5433 11.5522C85.3573 9.3704 84.4333 9.1834 76.5427 9.3258C69.6047 9.45073 69.4213 9.47447 67.2307 10.5377C64.4976 11.8645 61.5409 14.7529 60.3658 17.2444C59.8838 18.2667 59.3083 20.2325 59.0875 21.6124C58.7031 24.0121 58.6401 24.1217 57.6505 24.1217C56.7286 24.1217 56.6154 23.9883 56.6154 22.8987C56.6154 21.057 57.6319 17.5317 58.7694 15.4295C60.1732 12.8347 63.1585 10.0131 65.8661 8.72247C68.498 7.4682 68.474 7.34107 65.2284 5.38193C61.6348 3.21242 58.8934 2.49867 53.6356 2.36335C51.0749 2.29755 48.5607 2.3232 48.0486 2.4206ZM77.9987 12.3656C77.6173 13.357 78.4747 13.9786 80.488 14.1719C83.118 14.4239 84.2507 15.373 84.8647 17.8373C85.42 20.0648 85.854 20.5299 86.8713 19.9864C87.6773 19.5563 87.5087 17.8841 86.402 15.3161C85.5707 13.389 83.5027 12.2291 80.3953 11.9477C78.6133 11.7864 78.1927 11.86 77.9987 12.3656ZM37.6466 22.1273C37.222 22.6659 36.8745 23.4797 36.8745 23.9359C36.8745 24.392 37.222 25.2057 37.6466 25.7444C38.2418 26.5001 38.7469 26.7239 39.8543 26.7239C40.9616 26.7239 41.4667 26.5001 42.0619 25.7444C42.4865 25.2057 42.834 24.392 42.834 23.9359C42.834 23.4797 42.4865 22.6659 42.0619 22.1273C41.4667 21.3715 40.9616 21.1477 39.8543 21.1477C38.7469 21.1477 38.2418 21.3715 37.6466 22.1273ZM84.2967 68.39C84.0073 68.6787 84.0593 69.3093 84.4793 70.6207C84.8013 71.626 85.1693 72.4487 85.296 72.4487C85.6607 72.4487 86.5013 68.8027 86.236 68.3733C85.9233 67.8693 84.8087 67.8787 84.2967 68.39Z" fill="black"/>
</g>
</g>
<defs>
<clipPath id="clip0_390_53">
<rect width="92" height="100" fill="white"/>
</clipPath>
</defs>
</svg>
