<svg width="1198" height="719" viewBox="0 0 1198 719" fill="none" xmlns="http://www.w3.org/2000/svg">
<path fill-rule="evenodd" clip-rule="evenodd" d="M579 0.232793C537.98 2.99379 510.817 7.96879 480.993 18.1848C434.576 34.0838 395.832 61.1088 364.997 99.0958C343.985 124.982 324.145 162.072 311.203 199.662C307.567 210.222 300 235.504 300 237.091C300 237.461 302.787 234.299 306.193 230.065C352.681 172.278 404.377 143.612 462 143.67C492.054 143.701 519.994 150.32 543 162.86C564.9 174.796 578.858 186.555 623.5 230.673C671.491 278.1 685.367 290.115 713.5 308.601C755.106 335.941 802.607 351.825 860.5 357.757C876.085 359.354 922.137 359.362 937.5 357.77C1004.37 350.843 1052.42 332.619 1095.74 297.75C1106.21 289.326 1123.89 271.53 1133.26 259.993C1153.75 234.76 1174 196.789 1186.8 159.628C1190.43 149.068 1198 123.786 1198 122.199C1198 121.829 1195.21 124.991 1191.81 129.225C1159.45 169.45 1123.59 196.212 1086.23 208.013C1071.24 212.749 1059.37 214.736 1042.49 215.339C995.131 217.03 958.704 204.246 920.5 172.527C915 167.961 894.3 148.205 874.5 128.625C854.7 109.045 834.188 89.2268 828.918 84.5848C772.407 34.8088 715.978 9.87779 642.322 2.14279C627.945 0.632793 590.042 -0.510207 579 0.232793ZM279 360.233C237.98 362.994 210.817 367.969 180.993 378.185C134.576 394.084 95.832 421.109 64.997 459.096C43.985 484.982 24.145 522.072 11.203 559.662C7.567 570.222 0 595.504 0 597.091C0 597.461 2.787 594.299 6.193 590.065C52.519 532.479 104.292 503.677 161.526 503.651C197.304 503.635 228.26 512.434 255.5 530.364C272.356 541.458 285.473 553.092 323.5 590.673C371.491 638.1 385.367 650.115 413.5 668.601C455.106 695.941 502.607 711.825 560.5 717.757C576.085 719.354 622.137 719.362 637.5 717.77C704.374 710.843 752.42 692.619 795.742 657.75C806.208 649.326 823.891 631.53 833.259 619.993C853.748 594.76 874.003 556.789 886.797 519.628C890.433 509.068 898 483.786 898 482.199C898 481.829 895.213 484.991 891.807 489.225C859.448 529.45 823.586 556.212 786.229 568.013C771.237 572.749 759.373 574.736 742.486 575.339C695.131 577.03 658.704 564.246 620.5 532.527C615 527.961 594.3 508.205 574.5 488.625C554.7 469.045 534.188 449.227 528.918 444.585C472.407 394.809 415.978 369.878 342.322 362.143C327.945 360.633 290.042 359.49 279 360.233Z" fill="#38BDF8"/>
</svg>
