<svg width="100" height="60" viewBox="0 0 100 60" fill="none" xmlns="http://www.w3.org/2000/svg">
<mask id="mask0_390_52" style="mask-type:luminance" maskUnits="userSpaceOnUse" x="0" y="0" width="100" height="60">
<path d="M100 0H0V59.8802H100V0Z" fill="white"/>
</mask>
<g mask="url(#mask0_390_52)">
<path fill-rule="evenodd" clip-rule="evenodd" d="M48.3304 0.0193876C44.9064 0.249331 42.6392 0.663661 40.1496 1.51448C36.2751 2.83859 33.0411 5.0893 30.4672 8.25297C28.7133 10.4088 27.0572 13.4978 25.9769 16.6284C25.6734 17.5079 25.0417 19.6134 25.0417 19.7456C25.0417 19.7764 25.2744 19.5131 25.5587 19.1604C29.4392 14.3478 33.7544 11.9604 38.5643 11.9652C41.0728 11.9678 43.4052 12.519 45.3256 13.5634C47.1536 14.5575 48.3188 15.5368 52.0452 19.2111C56.0512 23.1609 57.2092 24.1616 59.5576 25.7011C63.0304 27.978 66.9956 29.3009 71.828 29.795C73.1288 29.9279 76.9732 29.9286 78.2556 29.796C83.8372 29.2191 87.848 27.7014 91.464 24.7974C92.338 24.0958 93.814 22.6137 94.596 21.6529C96.3064 19.5515 97.9968 16.3891 99.0652 13.2943C99.368 12.4148 100 10.3092 100 10.177C100 10.1462 99.7672 10.4096 99.4832 10.7622C96.782 14.1123 93.7888 16.3411 90.6704 17.3239C89.4192 17.7183 88.4284 17.8838 87.0192 17.934C83.066 18.0749 80.0252 17.0101 76.8364 14.3685C76.3772 13.9882 74.6496 12.3429 72.9968 10.7122C71.344 9.08156 69.6316 7.43106 69.192 7.04443C64.4748 2.89897 59.7644 0.822647 53.616 0.178457C52.416 0.0527006 49.2524 -0.0424914 48.3304 0.0193876ZM23.2888 30.0012C19.8648 30.2311 17.5974 30.6454 15.1079 31.4962C11.2334 32.8204 7.99932 35.0711 5.42544 38.2347C3.67154 40.3904 2.01544 43.4794 0.93514 46.61C0.631636 47.4894 0 49.5952 0 49.7273C0 49.7581 0.232638 49.4946 0.516944 49.1421C4.38388 44.3461 8.70552 41.9477 13.483 41.9453C16.4694 41.9441 19.0534 42.677 21.3272 44.1701C22.7342 45.0942 23.8291 46.0631 27.0033 49.1928C31.0093 53.1425 32.1675 54.1433 34.5158 55.683C37.9888 57.9597 41.954 59.2826 46.7864 59.7768C48.0872 59.9098 51.9312 59.9106 53.2136 59.7776C58.796 59.2008 62.8064 57.683 66.4224 54.7792C67.296 54.0774 68.7724 52.5956 69.554 51.6347C71.2644 49.5333 72.9552 46.3709 74.0232 43.2758C74.3268 42.3964 74.9584 40.291 74.9584 40.1589C74.9584 40.1281 74.7256 40.3912 74.4412 40.7441C71.7404 44.0938 68.7468 46.323 65.6284 47.3058C64.3772 47.7002 63.3868 47.8655 61.9772 47.9158C58.0244 48.0567 54.9836 46.992 51.7948 44.3501C51.3356 43.9701 49.6076 42.3246 47.9548 40.6938C46.302 39.0633 44.59 37.4128 44.15 37.0262C39.433 32.8808 34.7227 30.8044 28.5744 30.1602C27.3744 30.0345 24.2105 29.9393 23.2888 30.0012Z" fill="#38BDF8"/>
</g>
</svg>
